<svg width="251" height="201" viewBox="0 0 251 201" fill="none" xmlns="http://www.w3.org/2000/svg">
<g clip-path="url(#clip0_357_1867)">
<path d="M111.494 1.37097C118.862 0.805499 125.487 0.689718 132.924 0.896828C137.158 1.01473 141.293 1.80663 145.333 2.00932C151.795 2.21309 158.09 2.7048 164.513 3.40145C167.794 3.75739 170.841 4.54588 174.022 4.91569C184.472 6.13031 194.79 7.36862 204.885 10.4687C209.097 11.7619 213.057 14.9119 216.541 17.5002C219.37 19.7377 222.083 23.9239 223.575 27.1541C224.51 29.0042 224.979 31.4592 226.361 33.0378C227.169 33.9611 229.46 34.0976 230.485 34.5118C233.975 35.9211 238.888 36.7433 242.225 38.1842C245.913 39.78 248.421 43.2829 248.739 47.2896C248.954 50.0458 248.095 52.8855 247.022 55.3903C243.074 62.0977 236.298 63.4008 229.745 59.4451C227.563 58.1282 223.551 55.6377 221.889 53.8504C220.869 55.4712 219.868 56.6183 218.94 58.0321L218.846 58.1033C208.33 66.2111 201.781 69.9718 187.963 67.9608C180.42 66.8631 172.76 64.9101 165.148 64.5845C165.167 66.2307 165.133 68.25 165.222 69.8647C165.071 79.7153 165.498 88.7075 160.46 97.509C159.325 99.4924 158.317 101.384 156.827 103.159C154.009 106.555 150.597 109.41 146.758 111.586C144.815 112.69 135.324 116.396 135.221 117.231C134.377 124.059 134.381 135.264 135.089 142.054C135.126 142.405 135.183 142.752 135.259 143.096C135.693 143.477 136.216 143.991 136.657 144.331C144.585 150.45 143.564 157.72 143.502 166.959L143.48 180.74L143.511 190.43C143.536 192.987 143.747 196.447 143.248 198.85C140.846 200.421 139.891 200.504 137.621 198.764C135.83 194.714 137.362 193.105 137.319 189.009C137.274 184.734 137.494 179.791 137.37 175.602C137.19 169.522 138.341 155.661 133.809 151.15C131.355 148.283 126.67 147.14 123.047 147.714C121.311 147.988 119.913 148.579 118.289 149.243C116.666 150.056 114.419 152.765 114.03 154.389C112.724 159.833 113.015 167.066 113.022 172.636L113.038 190.524C113.025 192.372 113.256 195.634 112.884 197.306C112.458 199.221 110.027 199.17 109.284 200.904H108.896C108.47 199.152 107.222 199.933 106.316 197.947C105.815 195.035 106.027 187.513 106.005 184.242C106.003 176.661 105.963 169.081 105.998 161.499C106.022 156.408 106.9 150.848 110.449 146.943C111.676 145.593 113.153 144.377 114.479 143.099C114.94 140.859 114.95 118.813 114.53 116.578C106.117 114.07 98.566 109.275 92.7188 102.727C84.0809 92.9408 85.1341 81.985 85.2329 69.9853C85.2465 68.3306 85.1965 66.6781 85.2993 65.0239C81.4177 64.341 79.1811 65.1642 75.3886 65.8772C71.6619 66.5958 67.9185 67.2251 64.1615 67.764C60.8998 68.2156 58.6206 68.0985 55.4958 68.1305C47.9685 68.2074 43.3544 67.4548 37.1034 62.8285C35.3245 61.512 33.8034 60.4698 32.1781 58.8155L30.7671 57.4435C30.2903 56.7859 29.8722 56.2972 29.3384 55.6833L29.0045 55.2911C28.8452 55.0176 28.6019 54.6948 28.4135 54.4296C27.1844 54.0913 26.8962 55.1274 25.9524 55.613C22.7715 57.2499 20.7784 59.563 17.361 60.8185C10.1419 63.4703 4.00648 58.954 1.80865 52.1833C1.41845 49.2388 1.23149 48.0613 1.7447 45.166C4.60121 35.4843 16.0683 37.1432 22.9277 32.9332C24.396 32.0321 27.0484 24.7881 28.883 22.5715C32.1338 18.6511 37.4982 13.3339 42.3736 11.2748C49.7041 8.79363 58.7006 6.76442 66.4288 5.87259C73.0584 5.10751 79.2574 4.22182 85.8482 3.21169C93.7677 2.00403 104.338 2.98157 111.494 1.37097ZM137.233 55.0782C143.829 55.1192 150.678 55.9289 157.338 56.0939C161.78 56.2038 167.097 57.8177 171.622 57.9974C178.35 58.9056 189.472 62.0516 196.199 61.3331C202.303 60.6598 207.999 57.9295 212.346 53.5908C222.497 43.5435 221.671 32.6833 211.605 22.8947C206.286 17.1666 200.063 16.5405 192.924 14.8262C186.48 13.2789 180.359 12.7126 173.797 11.8007C163.934 10.4302 154.123 9.26952 144.151 8.8747C141.416 8.76642 138.531 8.20224 135.779 8.08179C128.34 8.26302 120.138 7.59966 112.781 8.1267C105.909 8.83905 99.2207 9.52491 92.2985 9.78079C89.293 9.89189 85.8419 10.8161 82.7927 11.0172C73.5725 12.0613 64.2051 12.8742 55.2278 15.3006C51.9427 16.1886 48.8928 16.4921 45.7453 17.9397C29.6139 25.3581 24.4457 43.8901 39.2855 55.7923C44.6952 60.1312 52.2648 62.1199 59.2147 61.35C69.1484 59.802 79.0889 57.4476 89.1372 56.3152C92.6389 55.9205 96.2011 55.9825 99.7167 55.8371C112.175 54.6566 124.696 55.0766 137.233 55.0782ZM144.691 93.2608C143.931 93.8976 143.252 94.5019 142.301 94.8253C139.796 95.6775 135.853 95.4574 133.493 94.2847C131.467 93.2898 129.905 91.55 129.132 89.4289C127.878 85.9046 128.749 72.6762 128.565 68.0495C128.504 66.5066 128.775 64.2492 128.212 62.6245C128.027 62.0926 127.67 62.0633 127.143 61.8442C124.946 61.6347 124.147 61.5811 121.941 61.7824C121.888 67.9996 122.598 84.8289 120.471 89.7091C119.871 91.0846 118.579 92.2296 117.522 93.2706L117.08 93.7015L116.394 94.0731C113.576 95.1496 110.35 95.8039 107.463 94.4839C105.312 93.6671 102.146 91.3707 101.593 89.1066C100.563 84.8936 100.84 79.9442 100.843 75.6022C100.834 71.386 100.849 67.1697 100.887 62.9537C97.3604 62.9235 95.4455 62.9588 91.9897 63.4179C90.7798 73.1559 90.6931 88.7552 97.1377 96.6677C102.765 103.577 110.016 108.691 118.999 110.02C126.352 111.161 131.987 110.221 138.676 107.646C154.418 101.589 158.973 87.8919 157.95 72.1706C157.818 70.1537 157.843 65.2203 158.091 63.2313C156.584 63.0449 150.068 62.5962 148.944 63.2982L148.93 63.7029C148.814 68.8674 149.599 85.2097 147.995 88.9174C147.234 90.6767 145.739 91.7399 144.691 93.2608ZM236.384 54.3899L239.09 53.1951C241.45 51.53 242.182 47.59 240.765 46.085C239.221 44.4454 229.119 41.5207 226.935 40.8548C226.392 42.9504 225.578 45.7556 225.295 47.8466C226.91 48.6383 228.138 49.7042 229.602 50.7262C231.621 52.1337 234.057 53.5567 236.384 54.3899ZM13.6152 54.6905C17.4127 52.5135 21.6465 50.4962 24.5495 47.293C24.1934 46.0473 23.3185 41.4501 22.643 40.9637L22.2857 41.0092C16.0454 43.6084 1.85639 44.7875 11.2305 53.502L13.6152 54.6905ZM141.298 86.6914C142.855 83.6796 142.341 77.7702 142.34 74.2804C142.339 70.5188 142.432 66.1889 142.072 62.4814C139.747 62.4351 137.423 62.4045 135.097 62.3894C135.285 66.7081 134.307 85.135 136.212 87.1603C136.754 87.7365 137.974 87.8158 138.707 87.7826C139.457 87.7487 140.51 87.6943 141.046 87.0914C141.163 86.96 141.222 86.8505 141.298 86.6914ZM128.347 140.067C127.967 138.205 128.06 120.122 128.34 118.01C126.715 117.92 124.076 117.79 122.417 117.858L122.345 132.295C122.347 134.291 122.519 138.392 122.237 140.065C124.235 140.059 126.359 140.014 128.347 140.067ZM107.916 62.3908C108.083 67.5515 108.151 72.715 108.118 77.8783C108.124 80.7292 108.024 84.8581 108.331 87.5541C110.408 87.951 112.37 88.0349 114.335 87.0696C114.905 83.945 114.644 80.4555 114.676 77.2646C114.725 72.3768 114.532 67.4336 114.575 62.5597C112.69 62.2939 109.91 62.3935 107.916 62.3908Z" fill="#DEDEE1"/>
<path d="M123.717 15.716C124.84 15.6374 126.212 15.7718 127.352 15.8459C127.924 20.1123 128.201 24.4449 128.144 28.7475C128.114 31.1079 128.431 35.2258 126.046 36.4348C122.447 37.071 122.303 34.9482 122.23 31.888C122.108 26.8599 121.977 21.7184 122.01 16.729C122.013 16.2146 123.329 15.8446 123.717 15.716Z" fill="#DEDEE1"/>
<path d="M65.3995 18.852C67.5637 18.715 68.084 19.817 68.4232 21.7203C69.3297 26.8069 70.7348 32.1403 70.7034 37.3145C69.8148 38.7173 69.8272 38.6967 68.2245 39.0746C67.4568 39.0271 66.4415 38.8843 65.6557 38.7984C64.8507 35.1368 62.2688 24.2051 63.174 20.2029C63.3133 19.5872 64.7738 19.0643 65.3995 18.852Z" fill="#DEDEE1"/>
<path d="M181.034 18.8765C183.307 18.1579 184.187 20.9621 183.92 22.6033C183.218 26.9257 182.911 34.9597 181.404 38.8665C180.902 39.2054 180.025 39.1365 179.39 39.1434L179.24 39.1132C178.564 38.9758 176.761 38.6807 176.564 38.0482C175.468 34.5155 177.129 29.4501 177.87 26.0075C178.384 23.6214 178.712 21.5325 179.317 19.5445C179.935 18.9718 180.086 19.0944 181.034 18.8765Z" fill="#DEDEE1"/>
<path d="M152.118 16.2774C153.039 16.1592 154.231 16.7057 155.144 17.0353C155.478 21.3558 155.24 30.9951 153.642 35.2084C153.377 35.9053 152.641 36.2672 151.946 36.4848C151.118 36.5478 149.479 36.6696 149.249 35.6278C148.155 30.6733 148.81 21.8618 150.419 17.2418L152.118 16.2774Z" fill="#DEDEE1"/>
<path d="M93.9424 16.5517C94.8301 16.1467 97.0954 16.9039 97.2369 17.867C97.7219 21.1704 98.685 33.1821 97.5777 35.7786C97.1645 36.3191 96.6579 36.3362 95.98 36.4717C95.2355 36.5157 93.2563 35.8372 93.0475 35.1584C92.0043 31.7673 91.185 20.0857 92.1162 17.133C92.5904 16.6903 93.2804 16.6628 93.9424 16.5517Z" fill="#DEDEE1"/>
</g>
<defs>
<clipPath id="clip0_357_1867">
<rect width="250.346" height="200.904" fill="white"/>
</clipPath>
</defs>
</svg>
