<svg width="46" height="43" viewBox="0 0 46 43" fill="none" xmlns="http://www.w3.org/2000/svg">
<path d="M16.6809 1.16792C18.8813 0.208978 20.6495 0.0029222 23.029 1.15523e-05C25.389 -0.00287575 27.3136 0.53567 29.5108 1.38463C30.889 1.91715 32.3962 3.04146 33.4134 4.11044C33.807 4.5513 34.439 5.56521 34.7774 6.09553C35.3926 6.09752 36.4825 6.07142 37.0691 6.138C39.3978 6.40233 41.6465 7.35569 43.3014 9.02981C44.765 10.5298 45.57 12.5515 45.5382 14.6469C45.5348 15.0321 45.5289 15.6431 45.4219 16.0052C44.6649 18.5721 42.8189 20.6827 40.3576 21.7471C39.9193 21.9366 39.1532 22.123 38.8357 22.4333C38.5901 22.7418 38.6714 27.1994 38.6723 27.9673L38.6801 36.5274C38.6843 37.4098 38.7562 38.6198 38.6903 39.4561C38.4214 40.4936 38.0739 40.7083 37.1203 41.1781C37.0192 41.228 36.3948 41.5149 36.3331 41.5691C36.0809 41.6391 34.9865 41.909 34.803 41.9784C34.1742 42.1097 33.6158 42.1502 32.99 42.2484C32.0187 42.4006 30.8288 42.62 29.8516 42.71C27.1608 42.954 24.4002 42.954 21.706 42.9434C18.5465 42.9548 15.5213 42.8967 12.4106 42.2817C10.5716 41.9182 9.55885 41.8887 7.83818 40.8244C7.78 40.7901 7.72284 40.7541 7.6667 40.7165C6.76015 40.1076 6.70664 39.3162 6.70074 38.311C6.6962 37.5441 6.70677 36.774 6.70681 36.0071L6.70312 26.6317L6.70668 24.1013C6.70719 23.6444 6.72913 22.8232 6.64787 22.3964C6.55302 22.2893 6.60263 22.3198 6.45657 22.2863C6.05814 22.1187 5.66876 22.0116 5.23167 21.8157C3.76135 21.1566 2.48861 20.1251 1.5394 18.823C1.29515 18.4911 1.13822 18.1432 0.930564 17.8041C0.00381296 16.2902 -0.130594 15.041 0.0962578 13.2951C0.273536 11.9307 1.44764 9.87495 2.40858 8.8781C3.60746 7.6344 6.08271 6.5349 7.80445 6.22283C8.75025 6.05143 9.96836 6.20004 10.8313 5.96538C11.0155 5.91526 11.7677 4.62102 12.0414 4.32138C12.4327 3.89286 12.5149 3.70926 13.0436 3.32259C13.2917 3.14541 13.6134 2.82768 13.908 2.61992C14.782 2.00363 15.6614 1.49471 16.6809 1.16792ZM15.8682 19.9434C16.2084 20.4137 16.2972 20.5691 15.9907 21.1147C15.8719 21.1859 15.6648 21.3014 15.5693 21.388C15.2345 21.6318 14.6975 21.8655 14.3096 22.0419C13.7709 22.196 13.222 22.4166 12.6711 22.5334C11.7861 22.721 10.8496 22.6896 9.94718 22.7112C9.4896 22.7221 8.88001 22.7861 8.43635 22.7529C8.40737 24.8647 8.39795 26.9768 8.40805 29.0888C8.40805 30.2127 8.36353 31.923 8.44454 33.0191C9.02294 33.2651 9.59785 33.5275 10.1989 33.7139C11.3484 34.0703 12.5567 34.2101 13.7413 34.3902C14.1309 34.4493 14.5142 34.5437 14.9034 34.6013C15.6417 34.7105 16.4173 34.7721 17.1623 34.826C17.8752 34.8776 18.6001 34.8655 19.3151 34.8786C20.7099 34.9042 22.099 34.9185 23.4942 34.9161C23.9782 34.9152 26.4961 34.8251 26.7645 35.0302C26.8153 35.0689 26.8608 35.1248 26.8867 35.1833C26.9571 35.3421 26.9374 35.5403 26.8672 35.6953C26.8067 35.8288 26.7061 35.9407 26.5648 35.9905C26.0749 36.1631 24.8899 36.08 24.327 36.0819C22.6857 36.0876 21.0188 36.1317 19.3799 36.0589C18.7621 36.0315 18.1522 35.9317 17.5368 35.877C16.187 35.757 14.941 35.6646 13.5903 35.4785C13.014 35.399 12.4324 35.3668 11.8595 35.2608C10.693 35.0451 9.53462 34.6085 8.40873 34.236C8.37843 35.3274 8.36752 36.4193 8.37609 37.5111C8.37915 37.8942 8.32903 39.2279 8.59179 39.4344C10.2011 40.6949 12.5892 40.6347 14.5129 41.0751C15.3519 41.2672 16.0746 41.2563 16.9092 41.3378C18.7639 41.5189 20.6378 41.5023 22.5053 41.5173C23.4784 41.5333 24.4517 41.5201 25.424 41.4778C25.9205 41.4519 26.4137 41.3797 26.9101 41.3559C27.9394 41.3064 28.9659 41.3066 29.9938 41.2086C30.423 41.1676 30.846 41.0773 31.2725 41.0166C32.5953 40.8284 36.0959 40.3534 36.9794 39.4943C37.1797 39.2995 37.1597 39.0067 37.1596 38.7436C37.1594 37.2337 37.0709 35.7225 37.1802 34.2135C36.4613 34.4114 35.7985 34.6986 35.0903 34.9082C34.0072 35.229 32.8443 35.3955 31.7245 35.5216C31.1092 35.5909 30.0429 35.8391 30.3259 34.817C30.451 34.6526 31.0847 34.5008 31.2958 34.4643C32.448 34.265 33.6364 34.2064 34.7674 33.896C35.1953 33.7785 35.6058 33.5684 36.0215 33.4097C36.3638 33.3086 36.9341 33.1899 37.1164 32.8809C37.123 32.8623 37.1296 32.8436 37.1362 32.825L37.1451 32.7944C37.2313 32.508 37.1314 31.1052 37.1297 30.7072L37.1384 26.3811C37.1353 25.1972 37.0933 23.9758 37.1835 22.7991C36.0731 22.646 35.3032 22.7249 34.2127 22.6798C32.7024 22.5604 31.1965 22.1631 29.8745 21.3995C29.2729 21.1405 29.3519 20.3975 29.713 19.9774C30.0031 19.64 31.4829 20.4502 31.8203 20.5717C33.6337 21.2251 35.3034 21.4042 37.2144 21.0902C39.6718 20.6863 41.7414 19.5312 43.1325 17.4198C43.7669 16.2429 44.1692 14.8619 43.932 13.5592C43.5649 11.5439 42.3768 10.1692 40.7415 9.01165C38.7849 7.62668 35.5559 7.17058 33.2457 7.77032C32.2862 8.01942 31.3405 8.4748 30.3771 8.71108C29.8919 8.82739 29.7347 8.16098 29.6711 7.82507C30.0987 6.77381 31.971 6.59996 32.9908 6.10299C32.2437 5.29944 31.682 4.49898 30.7256 3.8661C25.504 0.410842 16.77 0.604908 12.8099 5.90024C12.7456 5.98621 12.6886 6.11539 12.7147 6.22449C12.9109 6.50392 15.4963 6.8373 15.6593 7.58344C16.136 9.79114 13.6861 8.01238 12.7274 7.86623C11.7605 7.71885 10.4946 7.33782 9.53335 7.44866C6.51097 7.79714 3.35555 9.12431 2.06485 12.0629C1.57198 13.185 1.33429 14.917 1.80889 16.0776C2.31219 17.4507 3.21832 18.6398 4.40868 19.4893C4.55287 19.592 4.86371 19.8222 5.00982 19.8737C6.66959 20.9446 10.0039 21.5537 11.9082 21.0911C12.426 20.9654 13.0103 20.8174 13.5244 20.6631C14.4101 20.3972 14.9288 19.8863 15.8682 19.9434Z" fill="#E5E5E9"/>
</svg>
