<svg width="44" height="42" viewBox="0 0 44 42" fill="none" xmlns="http://www.w3.org/2000/svg">
<rect x="1" y="1" width="42" height="40" rx="15" stroke="white" stroke-width="2"/>
<path d="M27.6748 11.8071C30.7443 11.8071 33.1151 14.1567 33.1152 17.1265C33.1152 18.9623 32.2817 20.7008 30.625 22.689C29.3752 24.1888 27.7124 25.7674 25.7021 27.5835L23.5791 29.4839L22.502 30.438L21.4219 29.4731L21.4209 29.4722L19.2969 27.5747C17.287 25.7621 15.6245 24.1855 14.375 22.687C12.7185 20.7004 11.8848 18.9623 11.8848 17.1265C11.8849 14.1567 14.2557 11.8071 17.3252 11.8071C19.0646 11.8072 20.7431 12.6055 21.832 13.8599L22.5 14.6294L23.168 13.8599C24.2569 12.6055 25.9354 11.8072 27.6748 11.8071Z" stroke="white" stroke-width="1.76923"/>
</svg>
