<svg width="45" height="45" viewBox="0 0 45 45" fill="none" xmlns="http://www.w3.org/2000/svg">
<g clip-path="url(#clip0_46_2172)">
<path d="M29.0628 23.1249V15.239L24.4266 13.1102C19.2867 19.2259 17.3654 35.1558 4.92187 35.1558C3.61651 35.1558 2.36461 35.6744 1.44158 36.5975C0.518553 37.5206 0 38.7725 0 40.0779C0 41.3833 0.518553 42.6353 1.44158 43.5584C2.36461 44.4814 3.61651 45 4.92187 45C23.6109 45 37.4985 34.2004 41.7639 26.5123L38.5075 23.1249H29.0628ZM40.5844 11.8419C43.4109 6.58229 41.9396 2.32557 40.3084 0.261814C40.2462 0.184634 40.1683 0.121484 40.08 0.0765105C39.9916 0.0315368 39.8948 0.00575544 39.7957 0.000858366C39.6967 -0.00403871 39.5978 0.0120592 39.5054 0.0480956C39.4131 0.0841321 39.3294 0.139292 39.2599 0.209957L37.2472 2.23152C37.1316 2.34893 37.0606 2.50293 37.0463 2.66703C37.0321 2.83114 37.0754 2.99509 37.1689 3.13068C37.7719 4.04127 38.6675 6.21577 37.0459 9.4872C35.4615 8.79457 33.7512 8.43669 32.0221 8.43598C29.5611 8.43598 27.276 9.1866 25.3125 10.4215L31.8753 13.4354V20.3123H39.7055L44.5113 25.3117C44.7978 24.2025 45 23.059 45 21.8566C45.0017 19.9718 44.6099 18.1075 43.8495 16.383C43.0891 14.6585 41.977 13.1117 40.5844 11.8419Z" fill="#3A3838"/>
</g>
<defs>
<clipPath id="clip0_46_2172">
<rect width="45" height="45" fill="white"/>
</clipPath>
</defs>
</svg>
