<svg width="29" height="29" viewBox="0 0 29 29" fill="none" xmlns="http://www.w3.org/2000/svg">
<g clip-path="url(#clip0_562_588)">
<path d="M18.9538 6.10352e-05C19.2988 6.10352e-05 19.6297 0.137123 19.8737 0.381096C20.1177 0.625068 20.2547 0.955966 20.2547 1.30099V2.60193C20.2547 2.60193 26.582 2.17191 26.7594 2.60193C26.9368 3.03194 27.0591 10.4075 26.7594 10.4075C26.4597 10.4075 24.1328 10.4075 24.1328 10.4075L27.7052 20.2231C27.9598 20.8834 28.077 21.5887 28.0497 22.2959C28.0224 23.0031 27.8512 23.6973 27.5464 24.3361C27.2417 24.9748 26.8098 25.5447 26.2773 26.0108C25.7447 26.477 25.1227 26.8296 24.4493 27.0471C23.7758 27.2646 23.065 27.3425 22.3604 27.2759C21.6558 27.2093 20.9722 26.9997 20.3514 26.66C19.7306 26.3202 19.1856 25.8573 18.7498 25.2997C18.314 24.742 17.9965 24.1014 17.8168 23.4169H12.2852C11.9895 24.5586 11.3149 25.5662 10.3719 26.2745C9.42887 26.9828 8.27327 27.35 7.09434 27.3158C5.9154 27.2817 4.783 26.8482 3.88255 26.0865C2.98211 25.3247 2.36699 24.2798 2.13793 23.1229C1.71633 22.9026 1.36317 22.5711 1.11684 22.1642C0.870503 21.7573 0.740418 21.2906 0.740723 20.815V7.80566C0.740723 7.46063 0.877785 7.12974 1.12176 6.88576C1.36573 6.64179 1.69663 6.50473 2.04166 6.50473H11.1482C11.4932 6.50473 11.8241 6.64179 12.0681 6.88576C12.3121 7.12974 12.4491 7.46063 12.4491 7.80566V14.3103C12.4491 14.6554 12.5862 14.9863 12.8302 15.2302C13.0741 15.4742 13.405 15.6113 13.7501 15.6113H16.3519C16.697 15.6113 17.0279 15.4742 17.2718 15.2302C17.5158 14.9863 17.6529 14.6554 17.6529 14.3103V2.60193H13.7501V6.10352e-05H18.9538ZM22.8566 19.5141C22.3033 19.5142 21.7644 19.6908 21.3183 20.0181C20.8722 20.3454 20.542 20.8063 20.3758 21.3341C20.2095 21.8618 20.2158 22.4288 20.3937 22.9527C20.5717 23.4766 20.912 23.9302 21.3653 24.2475C21.8186 24.5648 22.3612 24.7293 22.9144 24.7172C23.4676 24.705 24.0025 24.5169 24.4414 24.18C24.8804 23.8432 25.2005 23.3752 25.3553 22.844C25.5101 22.3128 25.4916 21.746 25.3023 21.2261L25.2802 21.1688C25.0897 20.6812 24.7564 20.2624 24.324 19.9671C23.8916 19.6719 23.3802 19.514 22.8566 19.5141ZM7.24539 19.5141C6.55533 19.5141 5.89354 19.7882 5.40559 20.2761C4.91765 20.7641 4.64352 21.4259 4.64352 22.1159C4.64352 22.806 4.91765 23.4678 5.40559 23.9557C5.89354 24.4437 6.55533 24.7178 7.24539 24.7178C7.93545 24.7178 8.59724 24.4437 9.08519 23.9557C9.57313 23.4678 9.84726 22.806 9.84726 22.1159C9.84726 21.4259 9.57313 20.7641 9.08519 20.2761C8.59724 19.7882 7.93545 19.5141 7.24539 19.5141ZM9.84726 9.1066H3.34259V11.7085H9.84726V9.1066ZM24.1575 5.20379H20.2547V7.80566H24.1575V5.20379Z" fill="#3B3A3A" fill-opacity="0.7"/>
</g>
<defs>
<clipPath id="clip0_562_588">
<rect width="28.0534" height="28.0534" fill="white"/>
</clipPath>
</defs>
</svg>
