<svg width="24" height="18" viewBox="0 0 24 18" fill="none" xmlns="http://www.w3.org/2000/svg">
<path d="M1.33334 18C0.95556 18 0.639116 17.856 0.384005 17.568C0.128894 17.28 0.000893486 16.924 4.59769e-06 16.5C-0.000884291 16.076 0.127116 15.72 0.384005 15.432C0.640893 15.144 0.957338 15 1.33334 15H22.6667C23.0444 15 23.3613 15.144 23.6173 15.432C23.8733 15.72 24.0009 16.076 24 16.5C23.9991 16.924 23.8711 17.2805 23.616 17.5695C23.3609 17.8585 23.0444 18.002 22.6667 18H1.33334ZM1.33334 10.5C0.95556 10.5 0.639116 10.356 0.384005 10.068C0.128894 9.77999 0.000893486 9.42399 4.59769e-06 8.99999C-0.000884291 8.57599 0.127116 8.21999 0.384005 7.93199C0.640893 7.64399 0.957338 7.49999 1.33334 7.49999H22.6667C23.0444 7.49999 23.3613 7.64399 23.6173 7.93199C23.8733 8.21999 24.0009 8.57599 24 8.99999C23.9991 9.42399 23.8711 9.78049 23.616 10.0695C23.3609 10.3585 23.0444 10.502 22.6667 10.5H1.33334ZM1.33334 3C0.95556 3 0.639116 2.856 0.384005 2.568C0.128894 2.28 0.000893486 1.924 4.59769e-06 1.5C-0.000884291 1.076 0.127116 0.719999 0.384005 0.432C0.640893 0.144 0.957338 0 1.33334 0H22.6667C23.0444 0 23.3613 0.144 23.6173 0.432C23.8733 0.719999 24.0009 1.076 24 1.5C23.9991 1.924 23.8711 2.2805 23.616 2.5695C23.3609 2.8585 23.0444 3.002 22.6667 3H1.33334Z" fill="#3B3A3A" fill-opacity="0.6"/>
</svg>
