<svg width="28" height="28" viewBox="0 0 28 28" fill="none" xmlns="http://www.w3.org/2000/svg">
<path d="M26.0944 13.5472V23.3061C26.0944 24.0456 25.8006 24.7548 25.2777 25.2777C24.7548 25.8006 24.0456 26.0944 23.3061 26.0944H3.78827C3.04877 26.0944 2.33957 25.8006 1.81666 25.2777C1.29376 24.7548 1 24.0456 1 23.3061V13.5472H26.0944ZM19.1237 1C19.4935 1 19.8481 1.14688 20.1095 1.40833C20.371 1.66978 20.5179 2.02439 20.5179 2.39413V3.78827H23.3061C24.0456 3.78827 24.7548 4.08203 25.2777 4.60493C25.8006 5.12783 26.0944 5.83704 26.0944 6.57654V10.7589H1V6.57654C1 5.83704 1.29376 5.12783 1.81666 4.60493C2.33957 4.08203 3.04877 3.78827 3.78827 3.78827H6.57654V2.39413C6.57654 2.02439 6.72342 1.66978 6.98487 1.40833C7.24632 1.14688 7.60092 1 7.97067 1C8.34042 1 8.69502 1.14688 8.95647 1.40833C9.21792 1.66978 9.3648 2.02439 9.3648 2.39413V3.78827H17.7296V2.39413C17.7296 2.02439 17.8765 1.66978 18.1379 1.40833C18.3994 1.14688 18.754 1 19.1237 1Z" fill="white"/>
</svg>
