<svg width="30" height="37" viewBox="0 0 30 37" fill="none" xmlns="http://www.w3.org/2000/svg">
<path d="M3.66667 36.6667C2.65833 36.6667 1.79544 36.3079 1.078 35.5905C0.360555 34.8731 0.00122222 34.0096 0 33V11C0 9.99167 0.359333 9.12878 1.078 8.41133C1.79667 7.69389 2.65956 7.33456 3.66667 7.33333H7.33333C7.33333 5.31667 8.05139 3.59028 9.4875 2.15417C10.9236 0.718055 12.65 0 14.6667 0C16.6833 0 18.4097 0.718055 19.8458 2.15417C21.2819 3.59028 22 5.31667 22 7.33333H25.6667C26.675 7.33333 27.5385 7.69267 28.2572 8.41133C28.9758 9.13 29.3346 9.99289 29.3333 11V33C29.3333 34.0083 28.9746 34.8718 28.2572 35.5905C27.5397 36.3092 26.6762 36.6679 25.6667 36.6667H3.66667ZM3.66667 33H25.6667V11H22V14.6667C22 15.1861 21.824 15.6218 21.472 15.9738C21.12 16.3258 20.6849 16.5012 20.1667 16.5C19.6484 16.4988 19.2133 16.3228 18.8613 15.972C18.5093 15.6212 18.3333 15.1861 18.3333 14.6667V11H11V14.6667C11 15.1861 10.824 15.6218 10.472 15.9738C10.12 16.3258 9.68489 16.5012 9.16667 16.5C8.64844 16.4988 8.21333 16.3228 7.86133 15.972C7.50933 15.6212 7.33333 15.1861 7.33333 14.6667V11H3.66667V33ZM11 7.33333H18.3333C18.3333 6.325 17.9746 5.46211 17.2572 4.74467C16.5397 4.02722 15.6762 3.66789 14.6667 3.66667C13.6571 3.66544 12.7942 4.02478 12.078 4.74467C11.3618 5.46455 11.0024 6.32744 11 7.33333Z" fill="#3B3A3A" fill-opacity="0.6"/>
</svg>
