<svg width="29" height="29" viewBox="0 0 29 29" fill="none" xmlns="http://www.w3.org/2000/svg">
<g clip-path="url(#clip0_357_1920)">
<path d="M18.9537 6.10352e-05C19.2987 6.10352e-05 19.6296 0.137123 19.8736 0.381096C20.1175 0.625068 20.2546 0.955966 20.2546 1.30099V2.60193C20.2546 2.60193 26.5819 2.17191 26.7593 2.60193C26.9366 3.03194 27.059 10.4075 26.7593 10.4075C26.4596 10.4075 24.1327 10.4075 24.1327 10.4075L27.705 20.2231C27.9597 20.8834 28.0769 21.5887 28.0496 22.2959C28.0223 23.0031 27.8511 23.6973 27.5463 24.3361C27.2415 24.9748 26.8097 25.5447 26.2772 26.0108C25.7446 26.477 25.1226 26.8296 24.4491 27.0471C23.7757 27.2646 23.0649 27.3425 22.3603 27.2759C21.6557 27.2093 20.9721 26.9997 20.3513 26.66C19.7305 26.3202 19.1855 25.8573 18.7497 25.2997C18.3139 24.742 17.9964 24.1014 17.8167 23.4169H12.2851C11.9894 24.5586 11.3148 25.5662 10.3718 26.2745C9.42875 26.9828 8.27315 27.35 7.09422 27.3158C5.91528 27.2817 4.78287 26.8482 3.88243 26.0865C2.98199 25.3247 2.36687 24.2798 2.1378 23.1229C1.71621 22.9026 1.36305 22.5711 1.11672 22.1642C0.870381 21.7573 0.740296 21.2906 0.740601 20.815V7.80566C0.740601 7.46063 0.877663 7.12974 1.12164 6.88576C1.36561 6.64179 1.69651 6.50473 2.04153 6.50473H11.1481C11.4931 6.50473 11.824 6.64179 12.068 6.88576C12.3119 7.12974 12.449 7.46063 12.449 7.80566V14.3103C12.449 14.6554 12.5861 14.9863 12.83 15.2302C13.074 15.4742 13.4049 15.6113 13.7499 15.6113H16.3518C16.6968 15.6113 17.0277 15.4742 17.2717 15.2302C17.5157 14.9863 17.6527 14.6554 17.6527 14.3103V2.60193H13.7499V6.10352e-05H18.9537ZM22.8565 19.5141C22.3032 19.5142 21.7643 19.6908 21.3182 20.0181C20.8721 20.3454 20.5419 20.8063 20.3756 21.3341C20.2094 21.8618 20.2157 22.4288 20.3936 22.9527C20.5716 23.4766 20.9119 23.9302 21.3652 24.2475C21.8185 24.5648 22.3611 24.7293 22.9143 24.7172C23.4674 24.705 24.0023 24.5169 24.4413 24.18C24.8802 23.8432 25.2004 23.3752 25.3552 22.844C25.51 22.3128 25.4915 21.746 25.3022 21.2261L25.2801 21.1688C25.0895 20.6812 24.7563 20.2624 24.3239 19.9671C23.8915 19.6719 23.38 19.514 22.8565 19.5141ZM7.24527 19.5141C6.55521 19.5141 5.89342 19.7882 5.40547 20.2761C4.91753 20.7641 4.6434 21.4259 4.6434 22.1159C4.6434 22.806 4.91753 23.4678 5.40547 23.9557C5.89342 24.4437 6.55521 24.7178 7.24527 24.7178C7.93533 24.7178 8.59712 24.4437 9.08507 23.9557C9.57301 23.4678 9.84714 22.806 9.84714 22.1159C9.84714 21.4259 9.57301 20.7641 9.08507 20.2761C8.59712 19.7882 7.93533 19.5141 7.24527 19.5141ZM9.84714 9.1066H3.34247V11.7085H9.84714V9.1066ZM24.1574 5.20379H20.2546V7.80566H24.1574V5.20379Z" fill="#FFFAFA"/>
</g>
<defs>
<clipPath id="clip0_357_1920">
<rect width="28.0534" height="28.0534" fill="white"/>
</clipPath>
</defs>
</svg>
