<svg width="26" height="26" viewBox="0 0 26 26" fill="none" xmlns="http://www.w3.org/2000/svg">
<path d="M16.0809 13.2933V9.59136L13.9044 8.59201C11.4915 11.463 10.5896 18.9412 4.74805 18.9412C4.13525 18.9412 3.54755 19.1847 3.11424 19.618C2.68093 20.0513 2.4375 20.639 2.4375 21.2519C2.4375 21.8647 2.68093 22.4524 3.11424 22.8857C3.54755 23.3191 4.13525 23.5625 4.74805 23.5625C13.5215 23.5625 20.041 18.4927 22.0433 14.8836L20.5146 13.2933H16.0809ZM21.4896 7.99661C22.8165 5.52752 22.1258 3.52923 21.3601 2.56041C21.3308 2.52418 21.2943 2.49453 21.2528 2.47342C21.2113 2.4523 21.1659 2.4402 21.1194 2.4379C21.0729 2.4356 21.0265 2.44316 20.9831 2.46008C20.9398 2.477 20.9005 2.50289 20.8678 2.53606L19.923 3.48508C19.8687 3.54019 19.8354 3.61249 19.8287 3.68952C19.822 3.76656 19.8423 3.84353 19.8863 3.90718C20.1693 4.33465 20.5897 5.35546 19.8285 6.89121C19.0847 6.56606 18.2818 6.39806 17.4701 6.39772C16.3148 6.39772 15.2421 6.7501 14.3203 7.32982L17.4012 8.74468V11.973H21.077L23.3331 14.3199C23.4676 13.7992 23.5625 13.2624 23.5625 12.6979C23.5633 11.8132 23.3794 10.938 23.0224 10.1284C22.6655 9.31884 22.1434 8.59274 21.4896 7.99661Z" fill="#EF411E"/>
</svg>
