<svg width="28" height="28" viewBox="0 0 28 28" fill="none" xmlns="http://www.w3.org/2000/svg">
<g clip-path="url(#clip0_357_1905)">
<path fill-rule="evenodd" clip-rule="evenodd" d="M25.9475 18.4082C25.3127 20.4597 24.2 22.3487 22.676 23.9004C22.0926 24.4944 21.4592 25.0267 20.7874 25.4952C21.0722 25.7428 21.2532 26.1075 21.2532 26.5147C21.2529 27.2605 20.6484 27.866 19.9026 27.8663H6.63501C5.88902 27.8663 5.28373 27.2606 5.28345 26.5147C5.28347 26.1075 5.4643 25.7428 5.74927 25.4952C5.07761 25.0268 4.4439 24.4943 3.8606 23.9004C2.3366 22.3486 1.2236 20.4598 0.589111 18.4082H25.9475ZM25.2864 5.73735C25.5691 5.04708 26.3577 4.71663 27.0481 4.99906C27.7382 5.28181 28.0696 6.07048 27.7874 6.76078L25.2317 13.0049C25.5819 13.0107 25.9172 13.1523 26.1653 13.4004C26.4182 13.6537 26.5608 13.9975 26.5608 14.3555C26.5608 15.2694 26.4685 16.1739 26.2913 17.0567H0.246338C0.0691417 16.1739 -0.0231585 15.2694 -0.0231934 14.3555C-0.0231843 13.9972 0.118996 13.6538 0.372314 13.4004C0.625679 13.1471 0.969104 13.0049 1.32739 13.0049H22.3127L25.2864 5.73735ZM4.37524 1.71977C4.62209 1.06524 5.32275 0.714016 5.98462 0.88969L6.11646 0.932658L6.27563 1.00004C7.08676 1.38382 8.0829 2.43402 7.98364 4.11332C7.98335 4.11831 7.98302 4.12398 7.98267 4.12895C7.90999 5.1503 7.32845 5.86047 7.04712 6.2266C6.71356 6.66072 6.66704 6.76917 6.65649 6.8643C6.64287 7.12341 6.69523 7.28963 6.76685 7.42387C6.85351 7.58604 6.99352 7.75294 7.22876 7.98051C7.76447 8.49926 7.77935 9.35452 7.26099 9.89067C6.74236 10.4267 5.88616 10.4412 5.34985 9.92289C4.72871 9.32203 3.8552 8.33313 3.95923 6.67778C3.9598 6.66864 3.96042 6.6586 3.96118 6.64946C4.04592 5.64053 4.6315 4.93543 4.90454 4.58012C5.23564 4.14923 5.27704 4.04206 5.2854 3.94438C5.2976 3.70656 5.23355 3.58278 5.19067 3.52153C5.16435 3.48405 5.13675 3.45798 5.11841 3.4434C5.09468 3.42467 5.10321 3.43764 5.16235 3.46C4.46469 3.19658 4.11236 2.41764 4.37524 1.71977ZM11.009 1.71977C11.2723 1.0216 12.0521 0.669358 12.7502 0.932658C13.5809 1.24632 14.7223 2.32081 14.6028 4.11235L14.6038 4.11332C14.5426 5.14393 13.9558 5.86149 13.679 6.22367C13.3339 6.67511 13.3088 6.76265 13.304 6.84379C13.3035 6.85048 13.3025 6.85762 13.302 6.8643C13.282 7.12948 13.3346 7.29729 13.4055 7.43266C13.4905 7.59461 13.6281 7.76061 13.8616 7.99223C14.3907 8.51779 14.3947 9.37383 13.8694 9.90336C13.344 10.4326 12.4889 10.4351 11.9592 9.9102C11.3991 9.35445 10.5914 8.44594 10.5959 6.96488L10.6077 6.66117C10.6758 5.64593 11.2614 4.93646 11.5315 4.58305C11.8708 4.13916 11.901 4.04422 11.9065 3.95414L11.9075 3.93852C11.9166 3.80969 11.9018 3.71821 11.885 3.65824C11.868 3.59806 11.8444 3.55197 11.8206 3.51762C11.7956 3.48174 11.7688 3.45641 11.7512 3.44242L11.7971 3.46C11.0991 3.19677 10.7461 2.41779 11.009 1.71977ZM17.6438 1.71977C17.9071 1.02162 18.6859 0.669387 19.384 0.932658C20.217 1.2471 21.3571 2.32203 21.2512 4.11332C21.2509 4.11832 21.2506 4.12397 21.2502 4.12895C21.1776 5.15027 20.597 5.86046 20.3157 6.2266C19.9819 6.66098 19.9346 6.76914 19.9241 6.8643C19.9105 7.12324 19.9632 7.29105 20.0354 7.42778C20.1229 7.59291 20.2631 7.76086 20.4963 7.99223C21.0254 8.5178 21.0284 9.37388 20.5032 9.90336C19.9778 10.4325 19.1226 10.4351 18.593 9.9102C17.995 9.31686 17.124 8.3298 17.2278 6.67778L17.2297 6.64946C17.3145 5.64041 17.9001 4.93538 18.1731 4.58012C18.5041 4.14938 18.5446 4.04204 18.553 3.94438C18.5652 3.70655 18.5011 3.58278 18.4583 3.52153C18.4319 3.48408 18.4043 3.45794 18.386 3.4434L18.4309 3.46C17.7329 3.19673 17.3807 2.41784 17.6438 1.71977Z" fill="white"/>
</g>
<defs>
<clipPath id="clip0_357_1905">
<rect width="28" height="28" fill="white"/>
</clipPath>
</defs>
</svg>
