<svg width="600" height="114" viewBox="0 0 600 114" fill="none" xmlns="http://www.w3.org/2000/svg" preserveAspectRatio="none">
<g transform="scale(0.9966, 0.7916)">
<mask id="path-1-inside-1_822_590" fill="white">
<path d="M30.6816 1.72854C30.3453 0.601495 32.268 -0.574868 33.042 0.31057L48.3521 17.8397C51.3905 21.3185 55.7839 23.3145 60.4028 23.3145H570C587.673 23.3145 602 37.6414 602 55.3145V111.314C602 128.987 587.673 143.314 570 143.314H32C14.327 143.314 0.000103989 128.987 0 111.314V55.3145C0 41.5524 8.6876 29.8196 20.8777 25.3006C24.7121 23.8792 28.6461 21.9933 30.32 18.2622C31.1003 16.5227 31.7316 14.5563 31.9971 12.4326C32.4306 8.96423 31.6691 5.03724 30.6816 1.72854Z"/>
</mask>
<path d="M30.6816 1.72854C30.3453 0.601495 32.268 -0.574868 33.042 0.31057L48.3521 17.8397C51.3905 21.3185 55.7839 23.3145 60.4028 23.3145H570C587.673 23.3145 602 37.6414 602 55.3145V111.314C602 128.987 587.673 143.314 570 143.314H32C14.327 143.314 0.000103989 128.987 0 111.314V55.3145C0 41.5524 8.6876 29.8196 20.8777 25.3006C24.7121 23.8792 28.6461 21.9933 30.32 18.2622C31.1003 16.5227 31.7316 14.5563 31.9971 12.4326C32.4306 8.96423 31.6691 5.03724 30.6816 1.72854Z" fill="#F5F5F7" fill-opacity="0.7"/>
<path d="M30.6816 1.72854L28.7651 2.30041L28.7652 2.30049L30.6816 1.72854ZM33.042 0.31057L34.5483 -1.00508L34.5478 -1.00566L33.042 0.31057ZM602 111.314L604 111.314V111.314H602ZM0 111.314H-2V111.314L0 111.314ZM31.9971 12.4326L33.9816 12.6807L33.9816 12.6807L31.9971 12.4326ZM30.6816 1.72854L32.5981 1.15667C32.7042 1.51216 32.5975 1.79166 32.5381 1.89605C32.4879 1.98428 32.456 1.99105 32.4817 1.97553C32.5101 1.9583 32.4669 1.99824 32.3232 1.99995C32.144 2.00208 31.8018 1.93066 31.5362 1.6268L33.042 0.31057L34.5483 -1.00566C33.8952 -1.75224 33.0224 -2.00866 32.2756 -1.99977C31.5642 -1.9913 30.9162 -1.75284 30.4093 -1.44578C29.5651 -0.934403 28.2072 0.430689 28.7651 2.30041L30.6816 1.72854ZM33.042 0.31057L31.5357 1.62622L46.8457 19.1553L48.3521 17.8397L49.8584 16.524L34.5483 -1.00508L33.042 0.31057ZM60.4028 23.3145V25.3145H570V23.3145V21.3145H60.4028V23.3145ZM570 23.3145V25.3145C586.569 25.3145 600 38.7459 600 55.3145H602H604C604 36.5368 588.778 21.3145 570 21.3145V23.3145ZM602 55.3145H600V111.314H602H604V55.3145H602ZM602 111.314L600 111.314C600 127.883 586.568 141.314 570 141.314V143.314V145.314C588.778 145.314 604 130.092 604 111.314L602 111.314ZM570 143.314V141.314H32V143.314V145.314H570V143.314ZM32 143.314V141.314C15.4315 141.314 2.0001 127.883 2 111.314L0 111.314L-2 111.314C-1.99989 130.092 13.2224 145.314 32 145.314V143.314ZM0 111.314H2V55.3145H0H-2V111.314H0ZM0 55.3145H2C2 42.4157 10.1416 31.4136 21.5729 27.1759L20.8777 25.3006L20.1825 23.4253C7.2336 28.2256 -2 40.6891 -2 55.3145H0ZM30.32 18.2622L32.1447 19.0808C32.9892 17.1984 33.6868 15.0392 33.9816 12.6807L31.9971 12.4326L30.0125 12.1845C29.7764 14.0735 29.2114 15.8469 28.4952 17.4436L30.32 18.2622ZM31.9971 12.4326L33.9816 12.6807C34.4665 8.80174 33.6133 4.55812 32.5981 1.15658L30.6816 1.72854L28.7652 2.30049C29.7249 5.51635 30.3947 9.12672 30.0125 12.1846L31.9971 12.4326ZM20.8777 25.3006L21.5729 27.1759C25.3821 25.7639 30.0961 23.6473 32.1447 19.0808L30.32 18.2622L28.4952 17.4436C27.196 20.3394 24.0422 21.9945 20.1825 23.4253L20.1825 23.4253L20.8777 25.3006ZM48.3521 17.8397L46.8457 19.1553C50.2639 23.069 55.2066 25.3145 60.4028 25.3145V23.3145V21.3145C56.3613 21.3145 52.517 19.568 49.8584 16.524L48.3521 17.8397Z" fill="#F0AA18" mask="url(#path-1-inside-1_822_590)"/>
</g>
</svg>
