<svg width="21" height="21" viewBox="0 0 21 21" fill="none" xmlns="http://www.w3.org/2000/svg">
<path d="M2.9343 17.0766C1.95614 16.0985 1.22263 14.9935 0.733788 13.7617C0.244942 12.5299 0.000281614 11.2779 -0.00018925 10.0056C-0.000660115 8.73325 0.243999 7.4812 0.733788 6.24942C1.22358 5.01764 1.95708 3.91267 2.9343 2.9345C3.91153 1.95634 5.0165 1.22283 6.24922 0.733986C7.48194 0.24514 8.73399 0.000481089 10.0054 9.54971e-06C11.2767 -0.000461989 12.5288 0.244197 13.7615 0.733987C14.9942 1.22378 16.0992 1.95728 17.0764 2.9345C18.0537 3.91172 18.7872 5.0167 19.277 6.24942C19.7667 7.48214 20.0114 8.73419 20.0109 10.0056C20.0105 11.2769 19.766 12.5292 19.2777 13.7624C18.7893 14.9956 18.0555 16.1004 17.0764 17.0766C16.0973 18.0529 14.9924 18.7864 13.7615 19.2772C12.5307 19.7679 11.2786 20.0125 10.0054 20.0111C8.73211 20.0097 7.47982 19.7653 6.24851 19.2779C5.01721 18.7904 3.91247 18.0567 2.9343 17.0766ZM4.40155 10.9425L7.5305 12.1622C7.61299 12.1976 7.68088 12.2419 7.73414 12.2952C7.78741 12.3485 7.83149 12.4161 7.86637 12.4981L9.06846 15.6094C9.16274 15.8451 9.33645 15.966 9.58959 15.9721C9.84274 15.9783 10.0167 15.8632 10.1114 15.6271L13.7 7.0534C13.7943 6.8177 13.753 6.61146 13.5763 6.43468C13.3995 6.2579 13.1932 6.21666 12.9575 6.31094L4.38387 9.8995C4.14817 9.99378 4.03315 10.1677 4.0388 10.4213C4.04446 10.675 4.16538 10.8487 4.40155 10.9425Z" fill="#04AC2A"/>
</svg>
