<svg width="30" height="32" viewBox="0 0 30 32" fill="none" xmlns="http://www.w3.org/2000/svg">
<path d="M8.13014 1.58333C8.87834 1.58333 11.8711 8.83513 11.8711 9.64089C11.8711 11.2524 9.62654 12.8639 8.87834 14.4754C8.13014 16.0869 9.62654 17.6984 11.1229 19.31C11.7065 19.9384 14.1157 22.533 15.6122 21.7272C17.1086 20.9215 18.605 18.5042 20.1014 18.5042C20.8496 18.5042 27.5834 21.7272 27.5834 22.533C27.5834 25.756 25.3388 28.1733 23.0942 28.979C20.8496 29.7848 19.3532 29.7848 16.3604 28.979C13.3675 28.1733 11.1229 27.3675 7.38194 23.3387C3.64093 19.31 2.89273 16.8927 2.14453 13.6697C1.39632 10.4466 1.39632 8.83513 2.14453 6.41786C2.89273 4.0006 5.13733 1.58333 8.13014 1.58333Z" stroke="#3B3A3A" stroke-opacity="0.6" stroke-width="3.16667" stroke-linecap="round" stroke-linejoin="round"/>
</svg>
