<svg width="166" height="201" viewBox="0 0 166 201" fill="none" xmlns="http://www.w3.org/2000/svg">
<path d="M154.116 113.331C157.381 113.148 163.182 113.077 164.903 116.303C166.754 120.278 161.289 121.215 158.774 121.444C151.854 122.077 145.827 123.043 139.675 126.301C136.905 127.98 135.339 129.104 133.273 131.608C133.276 129.264 133.637 126.235 133.892 123.852C134.043 123.652 134.198 123.457 134.357 123.265C135.087 122.383 136.059 121.503 136.906 120.721C141.783 116.22 147.571 113.93 154.116 113.331Z" fill="#F00101"/>
<path d="M164.11 44C164.362 44.0239 164.727 44.1049 164.913 44.2619C166.116 45.2738 162.492 47.341 161.863 47.791C148.803 57.1328 138.227 69.7237 133.2 85.1303C131.496 90.3514 130.378 95.6401 129.497 101.067C130.919 101.144 132.682 101.099 134.149 101.082C136.334 100.946 138.465 101.1 138.697 103.795C138.948 106.727 135.989 106.851 133.866 106.801C132.54 106.769 132.708 107.555 132.709 108.657L132.507 151.545C132.478 154.996 132.476 158.447 132.501 161.898C132.529 166.754 132.669 171.234 131.603 176.022C130.081 183.002 127.292 189.627 122.562 195.045C119.816 198.188 117.497 198.201 113.515 198.856C103.224 200.549 92.7575 200.644 82.3619 200.989C80.867 201.038 79.4788 200.909 77.9892 200.877C67.2783 200.679 56.4906 200.332 45.9357 198.373C41.6105 197.571 40.7393 197.059 38.0824 193.525C32.7052 186.372 29.8158 177.061 29.3142 168.248C29.2166 155.809 29.1868 143.37 29.2247 130.93C26.3241 128.57 22.9999 126.785 19.4305 125.671C14.5465 124.185 9.44932 123.812 4.40951 123.134C2.77212 122.914 0.144903 122.021 0.00863766 119.995C-0.222813 116.553 4.2503 115.377 7.03432 115.247C15.1775 114.867 23.0441 117.933 29.1016 123.385L29.1118 113.658C29.1141 111.751 29.1246 109.846 29.1042 107.939C29.1652 106.688 28.4694 106.72 27.478 106.779C25.2261 106.918 23.0495 106.735 23.1152 103.907C23.1541 102.238 23.9895 101.193 25.6672 101.164C29.3066 101.101 33.0045 101.167 36.6433 101.17L58.9048 101.172L127.462 101.104C128.79 92.3496 131.016 83.6892 134.909 75.7299C140.31 64.6862 148.954 55.2042 158.68 47.7937C159.773 46.9603 163.031 44.3781 164.11 44Z" fill="#F00101"/>
<path d="M63.5003 5.53529C70.0713 5.90577 72.8924 11.9394 75.3427 17.189C77.9549 16.0447 83.0912 13.7658 82.9735 18.5576C91.9958 17.4615 101.132 17.9368 109.985 19.9627C118.337 21.9607 126.89 25.8522 132.967 32.1425C134.835 34.0761 136.429 36.3426 137.83 38.645C139.605 38.1896 142.117 37.2588 143.8 38.2402C146.081 39.5706 146.064 43.2837 143.264 43.9857C141.68 44.3828 140.066 44.6727 138.468 45.027L125.215 47.8772L81.8276 57.3305L36.7548 67.1209C32.1492 68.149 27.5366 69.1451 22.9176 70.1088C20.7074 70.5806 17.1222 71.4543 14.9619 71.6208C12.8528 70.6826 11.5882 68.7729 12.9908 66.4568C13.996 64.7971 16.8384 64.6024 18.649 64.3246C19.0114 61.9843 19.3334 59.9219 20.0567 57.627C23.9771 45.1881 34.4705 35.8232 45.5186 29.7809C46.8316 29.0627 48.1818 28.4321 49.4993 27.7304C49.2748 27.3174 48.9294 26.7107 48.8418 26.2597C48.32 23.5736 53.5154 23.1654 55.4176 22.8519C55.1929 21.0063 55.0911 19.0102 55.0277 17.1479C54.8461 11.8142 57.4298 5.60203 63.5003 5.53529Z" fill="#F00101"/>
</svg>
