<svg xmlns="http://www.w3.org/2000/svg" aria-hidden="true" role="img" viewBox="0 0 410 404"><path fill="#41D1FF" d="M399.641 59.524L215.643 388.545c-3.433 6.135-12.246 6.135-15.679 0L10.359 59.524c-3.783-6.764 1.964-14.96 9.584-13.666l184.072 31.318a9 9 0 003.015 0l182.986-31.273c7.613-1.301 13.37 6.893 9.625 13.621z"/><path fill="#BD34FE" d="M292.965.993L156.412 27.438a4.5 4.5 0 00-3.658 3.753L129.86 178.65a4.5 4.5 0 005.616 4.86l38.035-8.794a4.5 4.5 0 015.41 5.36l-11.302 55.341a4.5 4.5 0 005.656 5.245l23.489-7.255a4.5 4.5 0 015.702 5.003l-17.974 86.43c-1.122 5.398 6.055 8.342 9.06 3.717l2.008-3.09L305.85 108.4a4.5 4.5 0 00-4.89-6.771l-38.955 7.32a4.5 4.5 0 01-5.156-5.444l25.418-88.018a4.5 4.5 0 00-5.257-5.598z"/></svg>
