<svg width="32" height="32" viewBox="0 0 32 32" fill="none" xmlns="http://www.w3.org/2000/svg">
<path d="M17.1093 29.068C21.2773 28.2333 26.6667 25.2347 26.6667 17.4813C26.6667 10.4267 21.5027 5.72801 17.7893 3.56934C16.964 3.08934 16 3.72001 16 4.67334V7.11068C16 9.03334 15.192 12.5427 12.9467 14.0027C11.8 14.748 10.56 13.632 10.4213 12.272L10.3067 11.1547C10.1733 9.85601 8.85067 9.06801 7.81333 9.86001C5.948 11.28 4 13.7733 4 17.48C4 26.9613 11.052 29.3333 14.5773 29.3333C14.7836 29.3333 14.9987 29.3267 15.2227 29.3133C13.4813 29.1653 10.6667 28.0853 10.6667 24.592C10.6667 21.8587 12.66 20.012 14.1747 19.112C14.5827 18.872 15.0587 19.1853 15.0587 19.6587V20.4453C15.0587 21.0453 15.292 21.9853 15.8453 22.628C16.472 23.356 17.3907 22.5933 17.464 21.636C17.488 21.3347 17.792 21.1427 18.0533 21.2947C18.908 21.7947 20 22.8613 20 24.592C20 27.3227 18.4947 28.5787 17.1093 29.068Z" fill="#FFFEFE"/>
</svg>
