<svg width="40" height="40" viewBox="0 0 40 40" fill="none" xmlns="http://www.w3.org/2000/svg">
<path d="M0.489796 21.3288H39.5102C39.7807 21.3288 40 21.5481 40 21.8186V28.586C40 28.8565 39.7807 29.0758 39.5102 29.0758H0.489796C0.219292 29.0758 0 28.8565 0 28.586V21.8186C0 21.5481 0.219288 21.3288 0.489796 21.3288Z" fill="#3A3838"/>
<path d="M0.489796 30.6676H39.5102C39.7807 30.6676 40 30.8869 40 31.1574V37.9248C40 38.1953 39.7807 38.4146 39.5102 38.4146H0.489796C0.219292 38.4146 0 38.1953 0 37.9248V31.1574C0 30.8869 0.219288 30.6676 0.489796 30.6676Z" fill="#3A3838"/>
<path d="M18.041 7.51213C17.9362 7.74614 18.0519 8.01219 18.2712 8.14513C19.388 8.82236 20.155 10.0622 20.155 11.4595C20.155 13.5901 18.4081 15.3288 16.2856 15.3288C14.1632 15.3288 12.4162 13.5819 12.4162 11.4595C12.4162 9.45431 13.9463 7.78432 15.9325 7.60584C16.1427 7.58696 16.3291 7.45449 16.4049 7.2576C17.5221 4.35558 20.4219 1.90365 20.5713 1.77782C20.9223 1.4921 21.4285 1.52476 21.7142 1.87578C21.9999 2.2268 21.9672 2.73292 21.6162 3.01863C20.7862 3.69637 18.912 5.56748 18.041 7.51213Z" fill="#3A3838"/>
<path d="M5.71826 7.94759C5.85039 7.82257 6.04205 7.78321 6.21351 7.84394L10.6768 9.42499C10.9335 9.51591 11.0645 9.79829 10.9918 10.0607C10.8641 10.5221 10.7918 11.0003 10.7918 11.4921C10.7918 14.5044 13.2327 16.986 16.2857 16.986C18.5271 16.986 20.4595 15.6233 21.3139 13.6993C21.4244 13.4505 21.7034 13.3124 21.9604 13.4023L37.2781 18.7604C37.7987 18.9425 37.6679 19.7125 37.1164 19.7125H0.489796C0.219288 19.7125 -0.00094223 19.493 0.00898743 19.2227C0.160122 15.1082 2.21172 11.2653 5.71826 7.94759Z" fill="#3A3838"/>
</svg>
