<svg width="44" height="42" viewBox="0 0 44 42" fill="none" xmlns="http://www.w3.org/2000/svg">
<path fill-rule="evenodd" clip-rule="evenodd" d="M1.05995 2.59093C1.33795 1.06213 2.76795 2.61501e-07 4.40395 2.61501e-07H4.69595C4.7636 -6.65697e-05 4.83055 0.0126772 4.89276 0.0374603C4.95497 0.0622434 5.01115 0.0985503 5.0579 0.144184C5.10464 0.189818 5.14097 0.243829 5.1647 0.302949C5.18844 0.362069 5.19907 0.425068 5.19595 0.488134L4.75095 9.6068C4.74353 9.75989 4.76849 9.91284 4.82441 10.0569C4.88032 10.201 4.96609 10.3334 5.07683 10.4465C5.18756 10.5597 5.32109 10.6514 5.46978 10.7164C5.61848 10.7813 5.77943 10.8183 5.94346 10.8253C6.10748 10.8322 6.27135 10.8089 6.42573 10.7567C6.5801 10.7045 6.72195 10.6245 6.84318 10.5211C6.96441 10.4178 7.06264 10.2931 7.13226 10.1544C7.20188 10.0156 7.24154 9.86535 7.24896 9.71227L7.69996 0.446134C7.70563 0.325959 7.7608 0.21247 7.85396 0.129346C7.94712 0.0462218 8.07107 -0.000116234 8.19996 2.61501e-07H10.8C10.9288 -0.000116234 11.0528 0.0462218 11.146 0.129346C11.2391 0.21247 11.2943 0.325959 11.3 0.446134L11.751 9.71227C11.7661 10.0214 11.9122 10.3123 12.1571 10.521C12.402 10.7296 12.7257 10.8389 13.057 10.8248C13.3882 10.8107 13.6999 10.6743 13.9234 10.4457C14.147 10.2172 14.2641 9.91504 14.249 9.60587L13.805 0.488134C13.8019 0.425068 13.8125 0.362069 13.8362 0.302949C13.8599 0.243829 13.8963 0.189818 13.943 0.144184C13.9898 0.0985503 14.0459 0.0622434 14.1082 0.0374603C14.1704 0.0126772 14.2373 -6.65697e-05 14.305 2.61501e-07H14.595C16.231 2.61501e-07 17.661 1.0612 17.939 2.59C18.402 5.14173 19.05 9.60307 18.998 14.3743C18.969 17.0249 17.068 19.4077 14.085 20.0312C13.649 20.1233 13.193 20.206 12.717 20.2795L14.559 36.6539C14.835 39.1067 13.199 41.5716 10.475 41.9253C10.1522 41.9714 9.82643 41.9964 9.49996 42C9.17383 41.9963 8.84837 41.9714 8.52596 41.9253C5.80196 41.5707 4.16595 39.1067 4.44195 36.6539L6.28396 20.2804C5.82581 20.21 5.36995 20.1272 4.91695 20.0321C1.93295 19.4087 0.0319485 17.0259 0.00294847 14.3752C-0.0490516 9.604 0.597949 5.14267 1.05995 2.59093ZM42.5 0.7924C30.626 0.7924 21 9.77667 21 20.8591C21 31.9415 30.626 40.9257 42.5 40.9257C42.8978 40.9257 43.2794 40.7782 43.5607 40.5157C43.842 40.2531 44 39.897 44 39.5257V33.3825C43.5018 33.4331 43.0011 33.4586 42.5 33.4591C35.044 33.4591 29 27.818 29 20.8591C29 13.9001 35.044 8.25907 42.5 8.25907C43.0073 8.25907 43.5073 8.28458 44 8.3356V2.1924C44 1.8211 43.842 1.465 43.5607 1.20245C43.2794 0.9399 42.8978 0.7924 42.5 0.7924ZM42.5 30.6591C43.01 30.6591 43.51 30.6261 44 30.5601V11.158C43.503 11.0931 43.0018 11.0601 42.5 11.0591C36.701 11.0591 32 15.4467 32 20.8591C32 26.2715 36.701 30.6591 42.5 30.6591Z" fill="#3A3838"/>
</svg>
