<svg width="47" height="47" viewBox="0 0 47 47" fill="none" xmlns="http://www.w3.org/2000/svg">
<g clip-path="url(#clip0_46_2420)">
<path fill-rule="evenodd" clip-rule="evenodd" d="M31.4094 0.5118C32.4164 0.0944755 33.511 -0.0673986 34.5959 0.0391435C35.6808 0.14581 36.7235 0.517722 37.6301 1.12313C38.5365 1.72857 39.28 2.54866 39.7941 3.50985C39.9995 3.89395 40.1636 4.29724 40.2892 4.71102C40.7038 4.83637 41.1075 5.00078 41.4924 5.20614C42.4542 5.71962 43.2758 6.46293 43.882 7.36922C44.4882 8.27557 44.8616 9.31833 44.9689 10.4034C45.0761 11.4884 44.9142 12.5835 44.4973 13.5909C44.0803 14.5984 43.421 15.4879 42.5783 16.1798C41.7356 16.8716 40.7345 17.3448 39.6652 17.5577C38.5959 17.7705 37.4899 17.7159 36.4465 17.3995C36.1263 17.3024 35.8158 17.1785 35.5158 17.0352L33.9543 18.5968C35.4211 21.7244 35.7223 25.392 35.0744 29.0636C34.138 34.3692 31.2114 39.9 26.6154 44.4972C26.5841 44.5285 26.5495 44.556 26.5168 44.585C25.3536 45.6919 23.8465 46.0999 22.382 46.1095C20.8911 46.1191 19.2922 45.7283 17.7131 45.0968C14.5465 43.8301 11.0422 41.426 7.86249 38.2452V38.2442C4.68246 35.0651 2.27838 31.5629 1.01191 28.3966C0.380277 26.8172 -0.00981811 25.2173 0.000187993 23.7257C0.00974404 22.3147 0.385867 20.8626 1.40156 19.7179L1.61347 19.4932C6.20974 14.897 11.7396 11.9696 17.0451 11.0333C20.1159 10.4914 23.1838 10.6133 25.9357 11.5255L27.968 9.49227C27.8248 9.19253 27.7008 8.88246 27.6037 8.56258C27.2871 7.51945 27.2331 6.41403 27.4455 5.34481C27.658 4.27547 28.131 3.27464 28.8225 2.43172C29.5139 1.58893 30.4023 0.929197 31.4094 0.5118ZM5.87323 22.3009C5.14977 22.3055 4.85714 22.4996 4.73945 22.6173L4.73847 22.6182C4.61917 22.7376 4.425 23.0321 4.42011 23.7559C4.41525 24.4933 4.61727 25.5069 5.1164 26.755C6.04965 29.0882 7.87977 31.8843 10.4621 34.5811L10.9885 35.1192V35.1202C13.8484 37.9811 16.8656 39.9976 19.3547 40.9932C20.6029 41.4925 21.6168 41.6943 22.3537 41.6895C23.0771 41.6847 23.37 41.4898 23.4875 41.3722L23.5353 41.3184C23.6525 41.1724 23.8025 40.8679 23.8068 40.2345C23.8118 39.4972 23.6096 38.4836 23.1105 37.2354C22.1152 34.7467 20.0993 31.7311 17.2385 28.8712L17.2375 28.8702C14.3777 26.0094 11.3613 23.9929 8.87226 22.9972C7.62394 22.4978 6.6103 22.2962 5.87323 22.3009ZM11.3908 29.3829C12.2539 28.52 13.6528 28.5199 14.5158 29.3829L16.7258 31.5929C17.5883 32.4559 17.5885 33.8549 16.7258 34.7179C15.8629 35.5807 14.4639 35.5804 13.6008 34.7179L11.3908 32.5079C10.5278 31.6448 10.5278 30.2459 11.3908 29.3829ZM34.1642 4.43758C33.8027 4.40206 33.4374 4.45577 33.1017 4.59481C32.766 4.73396 32.4699 4.95446 32.2394 5.23543C32.009 5.51638 31.8513 5.84973 31.7805 6.20614C31.7097 6.56239 31.7278 6.93084 31.8332 7.2784C31.9388 7.62597 32.129 7.94248 32.3859 8.1993C33.2486 9.06219 33.2486 10.4622 32.3859 11.3253L30.0266 13.6847C30.4699 14.0271 30.897 14.3997 31.3029 14.8057H31.3019C31.3342 14.838 31.3648 14.8719 31.3967 14.9044L33.6818 12.6182L33.8439 12.4718C34.2373 12.1492 34.7322 11.9708 35.2453 11.9708C35.8313 11.9709 36.3935 12.2038 36.8078 12.6182C37.0647 12.8751 37.382 13.0645 37.7297 13.17C38.0773 13.2753 38.4457 13.2936 38.8019 13.2227C39.1583 13.1518 39.4927 12.9943 39.7736 12.7638C40.0545 12.5332 40.2743 12.2362 40.4133 11.9005C40.5522 11.5648 40.6062 11.1995 40.5705 10.838C40.5348 10.4766 40.41 10.1292 40.2082 9.82723C40.0062 9.52523 39.7318 9.27671 39.4113 9.10555C39.0908 8.93458 38.7326 8.84559 38.3693 8.84578C37.7833 8.84616 37.2206 8.61335 36.8059 8.1993C36.3912 7.78503 36.1587 7.22197 36.1584 6.63582C36.1582 6.27279 36.0678 5.91499 35.8967 5.59481C35.7254 5.27451 35.477 5.00071 35.175 4.79891C34.873 4.59729 34.5256 4.4732 34.1642 4.43758Z" fill="#3A3838"/>
</g>
<defs>
<clipPath id="clip0_46_2420">
<rect width="46.095" height="46.095" fill="white"/>
</clipPath>
</defs>
</svg>
