<svg width="45" height="44" viewBox="0 0 45 44" fill="none" xmlns="http://www.w3.org/2000/svg">
<path d="M22.5 1.05703e-06C19.9963 -0.00102193 17.5513 0.740506 15.4877 2.12666C13.424 3.51281 11.839 5.47838 10.9417 7.7638C10.0084 7.50084 9.06222 7.28351 8.10675 7.1126C6.14166 6.76459 4.14804 6.59374 2.151 6.6022L1.764 6.611L1.656 6.6154L1.611 6.6176C1.19587 6.63976 0.803724 6.81098 0.509748 7.09842C0.215772 7.38586 0.0406633 7.7693 0.0179998 8.1752L0.0112503 8.327C0.00675026 8.415 0.00374984 8.5404 0.00224984 8.7032C-0.00225016 9.0244 1.42492e-07 9.4842 0.0202501 10.0496C0.0652501 11.1804 0.1935 12.7512 0.52425 14.5266C0.82575 16.1436 1.30725 17.9696 2.07675 19.8H1.6785C1.23333 19.8 0.806401 19.9729 0.491621 20.2807C0.176841 20.5885 0 21.0059 0 21.4412V22C0 24.299 0.36 26.5166 1.0305 28.6H43.9695C44.6544 26.4641 45.0019 24.2385 45 22V21.4412C45 21.0059 44.8232 20.5885 44.5084 20.2807C44.1936 19.9729 43.7667 19.8 43.3215 19.8H42.7432L42.7477 19.525C42.7465 17.1435 41.9354 14.83 40.4421 12.9486C38.9489 11.0672 36.8583 9.72464 34.4992 9.1322C33.8236 6.52109 32.2763 4.20502 30.1024 2.55086C27.9285 0.896704 25.2523 -0.000979459 22.4977 1.05703e-06M22.4977 3.3C24.2976 3.29997 26.056 3.82758 27.5461 4.81467C29.0361 5.80176 30.1892 7.203 30.8565 8.8374C28.9218 8.99685 27.0649 9.65506 25.4752 10.7449C23.8855 11.8348 22.6197 13.3173 21.807 15.0414C21.2003 14.1623 20.5094 13.3417 19.7437 12.5906C18.0585 10.9428 16.0987 9.7526 14.1142 8.888C14.775 7.23995 15.9288 5.82507 17.4248 4.82817C18.9209 3.83126 20.6896 3.29869 22.5 3.3M39.3727 19.525C39.3727 19.6174 39.3705 19.7091 39.366 19.8H24.2257L24.1852 19.69V19.525C24.1852 17.5558 24.9853 15.6672 26.4094 14.2747C27.8335 12.8823 29.765 12.1 31.779 12.1C33.793 12.1 35.7245 12.8823 37.1486 14.2747C38.5727 15.6672 39.3727 17.5558 39.3727 19.525ZM17.3587 14.9248C18.8055 16.3372 19.854 18.0378 20.61 19.8H15.885L11.88 15.884C11.7255 15.7219 11.5392 15.5919 11.3322 15.5017C11.1252 15.4115 10.9018 15.363 10.6752 15.3591C10.4486 15.3552 10.2235 15.3959 10.0134 15.4789C9.80328 15.5619 9.6124 15.6854 9.45216 15.8421C9.29192 15.9988 9.16559 16.1854 9.08072 16.3909C8.99585 16.5963 8.95417 16.8164 8.95817 17.038C8.96216 17.2595 9.01176 17.478 9.10399 17.6804C9.19622 17.8828 9.3292 18.0649 9.495 18.216L11.115 19.8H5.7825C4.7925 17.8728 4.1985 15.8114 3.8475 13.9326C3.60123 12.6085 3.45086 11.269 3.3975 9.9242V9.9198C4.4325 9.9572 5.877 10.0694 7.49925 10.3598C10.7842 10.9472 14.607 12.2298 17.3587 14.9248ZM2.40075 31.9C4.27619 35.5391 7.14848 38.5974 10.6974 40.7339C14.2463 42.8704 18.3324 44.0011 22.5 44C26.6676 44.0011 30.7537 42.8704 34.3026 40.7339C37.8515 38.5974 40.7238 35.5391 42.5992 31.9H2.40075Z" fill="#3A3838"/>
</svg>
