<svg width="41" height="41" viewBox="0 0 41 41" fill="none" xmlns="http://www.w3.org/2000/svg">
<g clip-path="url(#clip0_46_2495)">
<mask id="mask0_46_2495" style="mask-type:luminance" maskUnits="userSpaceOnUse" x="-1" y="0" width="43" height="44">
<path d="M11 17.725V9.40002C11 8.90937 11.1949 8.43881 11.5419 8.09187C11.8888 7.74492 12.3594 7.55001 12.85 7.55001H15.625C16.1157 7.55001 16.5862 7.74492 16.9332 8.09187C17.2801 8.43881 17.475 8.90937 17.475 9.40002V18.65V3.85C17.475 3.35935 17.6699 2.8888 18.0169 2.54185C18.3638 2.19491 18.8344 2 19.325 2H22.1C22.5907 2 23.0612 2.19491 23.4082 2.54185C23.7551 2.8888 23.95 3.35935 23.95 3.85V18.65V11.25C23.95 10.7594 24.1449 10.2888 24.4919 9.94187C24.8388 9.59493 25.3094 9.40002 25.8 9.40002H28.575C29.0657 9.40002 29.5363 9.59493 29.8832 9.94187C30.2301 10.2888 30.425 10.7594 30.425 11.25V17.725" stroke="white" stroke-width="3.70001" stroke-linecap="round" stroke-linejoin="round"/>
<path d="M2 16C2 16 9.61765 20.8077 20.5 20.8077C31.3824 20.8077 39 16 39 16L33.7569 41H7.24312L2 16Z" fill="white" stroke="white" stroke-width="4.14412" stroke-linecap="round" stroke-linejoin="round"/>
<path d="M21.5 31.6C24.5652 31.6 27.05 30.3576 27.05 28.825C27.05 27.2924 24.5652 26.05 21.5 26.05C18.4348 26.05 15.95 27.2924 15.95 28.825C15.95 30.3576 18.4348 31.6 21.5 31.6Z" fill="black" stroke="black" stroke-width="3.70001"/>
</mask>
<g mask="url(#mask0_46_2495)">
<path d="M-0.699951 -1.70003H43.7001V42.7001H-0.699951V-1.70003Z" fill="#3A3838"/>
</g>
<rect x="12.25" y="24.2001" width="18.5" height="11.1" fill="#3A3838"/>
<path d="M1 24.1501H40.0002L39 27.9501H2.00006L1 24.1501Z" fill="#F6F6F6"/>
</g>
<defs>
<clipPath id="clip0_46_2495">
<rect width="41" height="41" fill="white"/>
</clipPath>
</defs>
</svg>
