<svg width="45" height="44" viewBox="0 0 45 44" fill="none" xmlns="http://www.w3.org/2000/svg">
<path fill-rule="evenodd" clip-rule="evenodd" d="M41.9043 28.3672C40.8792 31.6796 39.083 34.7296 36.6221 37.2354C35.6796 38.195 34.6566 39.0549 33.5713 39.8116C34.0317 40.2116 34.3241 40.8003 34.3242 41.4581C34.3241 42.663 33.3475 43.6396 32.1426 43.6397H10.7139C9.5091 43.6394 8.53236 42.6629 8.53223 41.4581C8.53232 40.8006 8.82408 40.2116 9.28418 39.8116C8.19929 39.0551 7.17652 38.1947 6.23438 37.2354C3.77363 34.7296 1.97728 31.6796 0.952148 28.3672H41.9043ZM40.8369 7.9024C41.2932 6.78743 42.5675 6.25327 43.6826 6.70904C44.7978 7.16543 45.3322 8.4395 44.876 9.55474L40.748 19.6397C41.3142 19.6486 41.8558 19.8765 42.2568 20.2774C42.6659 20.6865 42.8954 21.2418 42.8955 21.8204C42.8955 23.2969 42.7474 24.7584 42.4609 26.1846H0.395508C0.109028 24.7584 -0.0390463 23.2969 -0.0390625 21.8204C-0.0389819 21.2419 0.190591 20.6865 0.599609 20.2774C1.00871 19.8683 1.56403 19.6388 2.14258 19.6387H36.0352L40.8369 7.9024ZM4.45898 24.003H38.3975V24.002H4.45898V24.003ZM17.7793 1.41314C18.2045 0.285916 19.4635 -0.283995 20.5908 0.140682C21.9326 0.646763 23.7775 2.38362 23.584 5.27838C23.4854 6.94345 22.5379 8.10265 22.0908 8.68756C21.5341 9.41605 21.4932 9.55757 21.4854 9.68853C21.4847 9.69945 21.4833 9.71083 21.4824 9.72174C21.4501 10.1501 21.5349 10.4211 21.6494 10.6397C21.7867 10.9015 22.0094 11.1696 22.3867 11.544C23.2417 12.3928 23.2469 13.7736 22.3984 14.629C21.5497 15.4842 20.1679 15.4902 19.3125 14.6417C18.3475 13.6842 16.9283 12.078 17.1309 9.39361H17.1318C17.242 7.75387 18.1869 6.60781 18.623 6.03717C19.1718 5.31921 19.2198 5.16721 19.2285 5.02154L19.2305 4.99517C19.2451 4.78729 19.2215 4.64171 19.1943 4.54498C19.1667 4.44685 19.1277 4.37217 19.0889 4.31646C19.0482 4.25823 19.0059 4.2178 18.9775 4.19537C18.9736 4.19227 18.9695 4.18954 18.9668 4.18756C17.8967 3.7322 17.3654 2.51156 17.7793 1.41314ZM28.4932 1.41314C28.9184 0.285817 30.1783 -0.284205 31.3057 0.140682C32.651 0.648215 34.4914 2.38587 34.3203 5.27935C34.3198 5.28762 34.3199 5.29649 34.3193 5.30474C34.2021 6.95432 33.2641 8.10001 32.8096 8.69146C32.2786 9.38254 32.1954 9.56278 32.1768 9.7149C32.1534 10.1374 32.24 10.4107 32.3574 10.6329C32.4986 10.8996 32.7241 11.1704 33.1006 11.544C33.9556 12.3927 33.9615 13.7736 33.1133 14.629C32.2646 15.4841 30.8828 15.49 30.0273 14.6417C29.0615 13.6833 27.6545 12.089 27.8223 9.42095L27.8252 9.37506C27.962 7.74534 28.9077 6.60606 29.3486 6.03228C29.8784 5.34286 29.9495 5.16741 29.9639 5.0108C29.9847 4.62298 29.8801 4.42243 29.8105 4.3233C29.7676 4.26229 29.7229 4.21971 29.6934 4.19635C29.6889 4.19283 29.6846 4.18969 29.6816 4.18756C28.6112 3.7324 28.0793 2.51171 28.4932 1.41314ZM7.06543 1.41314C7.49066 0.285817 8.74955 -0.284205 9.87695 0.140682C11.2223 0.648109 13.0636 2.38571 12.8926 5.27935C12.8921 5.28764 12.8912 5.29647 12.8906 5.30474C12.7734 6.95442 11.8353 8.10005 11.3809 8.69146C10.8464 9.38696 10.766 9.56507 10.748 9.71783C10.7252 10.1385 10.8118 10.4076 10.9277 10.6251C11.0676 10.8872 11.2936 11.1567 11.6738 11.5245C12.5397 12.3623 12.5631 13.7433 11.7256 14.6094C10.8878 15.4753 9.50576 15.4987 8.63965 14.6612C7.63646 13.6907 6.22547 12.0943 6.39355 9.42095L6.39648 9.37506C6.53333 7.74533 7.47902 6.60606 7.91992 6.03228C8.46699 5.32033 8.52563 5.15617 8.53711 4.99517C8.5543 4.61747 8.45042 4.42105 8.38184 4.3233C8.33904 4.26244 8.2952 4.21974 8.26562 4.19635C8.2618 4.19336 8.25763 4.19053 8.25488 4.18853C7.18316 3.73394 6.65118 2.51238 7.06543 1.41314Z" fill="#3A3838"/>
</svg>
